{"glyphs":{"0":{"ha":1351,"x_min":72,"x_max":1279,"o":"m 1279 665 l 1279 308 q 1186 88 1279 175 q 961 0 1093 0 l 390 0 q 165 88 258 0 q 72 308 72 176 l 72 665 q 165 885 72 796 q 390 972 258 972 l 961 972 q 1186 885 1093 972 q 1279 665 1279 797 m 1051 308 l 1053 664 q 961 746 1053 746 l 390 746 q 300 664 300 746 l 300 308 q 390 226 300 226 l 961 226 q 1051 308 1051 226 z "},"1":{"ha":547,"x_min":17,"x_max":464,"o":"m 17 972 l 463 972 l 463 0 l 446 0 q 364 17 403 0 q 297 61 325 33 q 253 128 269 89 q 236 210 236 167 l 236 744 l 226 744 q 78 806 140 744 q 17 954 17 868 l 17 972 z "},"2":{"ha":1325,"x_min":61,"x_max":1263,"o":"m 961 372 l 361 372 q 297 336 315 372 q 297 263 279 300 q 361 226 315 226 l 1051 226 q 1200 165 1139 226 q 1261 18 1261 104 l 1261 0 l 361 0 q 149 88 238 0 q 61 300 61 176 q 149 512 61 424 q 361 600 238 600 l 961 600 q 1015 622 996 600 q 1033 672 1033 644 q 1015 723 1033 700 q 961 746 996 746 l 283 746 q 126 811 192 746 q 61 968 61 876 l 61 972 l 961 972 q 1173 884 1085 972 q 1261 672 1261 796 q 1173 460 1261 549 q 961 372 1085 372 z "},"3":{"ha":1336,"x_min":65,"x_max":1275,"o":"m 288 746 q 176 776 228 746 q 95 858 125 806 q 65 972 65 910 l 965 972 q 1101 941 1039 972 q 1201 857 1163 910 q 1256 742 1239 804 q 1260 612 1274 681 q 1200 486 1246 543 q 1260 360 1246 429 q 1256 230 1274 292 q 1201 115 1239 168 q 1101 31 1163 63 q 965 0 1039 0 l 288 0 q 131 66 196 0 q 65 226 65 132 l 965 226 q 1019 249 1000 226 q 1038 300 1038 272 q 1019 350 1038 328 q 965 372 1000 372 l 288 372 q 131 438 196 372 q 65 600 65 504 l 965 600 q 1019 622 1000 600 q 1038 672 1038 644 q 1019 723 1038 700 q 965 746 1000 746 l 288 746 z "},"4":{"ha":1306,"x_min":50,"x_max":1258,"o":"m 1258 194 l 1101 194 l 1101 0 l 1057 0 q 928 54 982 0 q 874 183 874 108 l 874 194 l 51 194 l 51 504 l 861 972 l 1101 972 l 1101 422 l 1258 422 l 1258 194 m 874 718 l 361 422 l 874 422 l 874 718 z "},"5":{"ha":1338,"x_min":71,"x_max":1289,"o":"m 71 0 q 136 161 71 96 q 293 226 201 226 l 961 226 q 1035 258 1008 226 q 1061 328 1061 290 q 1035 398 1061 367 q 961 429 1008 429 l 71 429 l 71 750 q 136 907 71 842 q 293 972 201 972 l 1064 972 <q 1046 883 1064 925 q 998 810 1028 840 q 927 763 968 781 q 840 744 886 744 l 299 744 l 299 657 l 961 657 q 1192 560 1096 657 q 1289 328 1289 464 q 1192 97 1289 193 q 961 0 1096 0 l 71 0 z "},"6":{"ha":1336,"x_min":72,"x_max":1279,"o":"m 1279 354 l 1279 307 q 1187 88 1279 175 q 961 0 1094 0 l 390 0 q 230 39 303 0 q 115 149 157 78 q 72 308 72 219 l 72 663 q 165 884 72 796 q 390 972 257 972 l 1185 972 q 1167 883 1185 925 q 1120 810 1150 840 q 1049 763 1090 781 q 961 744 1007 744 l 390 744 q 318 721 338 744 q 299 649 299 697 q 426 660 329 657 q 614 663 524 663 q 824 661 704 663 q 961 660 943 660 q 1187 574 1094 660 q 1279 354 1279 488 m 1051 308 q 1052 326 1051 311 q 1052 344 1053 340 q 1051 362 1051 349 q 1049 379 1050 375 q 1044 393 1047 383 q 1036 407 1040 403 q 1025 417 1032 411 q 1009 426 1018 424 q 988 431 1000 429 q 961 433 976 433 l 390 433 q 299 354 299 433 q 299 336 299 351 q 299 317 299 321 q 299 299 299 313 q 302 282 300 286 q 307 267 304 278 q 315 253 310 257 q 326 243 319 250 q 342 234 333 236 q 363 229 351 232 q 390 226 375 226 l 961 226 q 1051 308 1051 226 z "},"7":{"ha":1081,"x_min":18,"x_max":1042,"o":"m 18 972 l 1042 972 l 1038 749 l 479 0 l 174 0 l 754 744 l 240 744 q 83 810 147 744 q 18 972 18 876 z "},"8":{"ha":1346,"x_min":69,"x_max":1276,"o":"m 369 972 l 976 972 q 1188 884 1100 972 q 1276 672 1276 796 q 1211 486 1276 568 q 1276 300 1276 404 q 1188 88 1276 176 q 976 0 1100 0 l 369 0 q 158 88 246 0 q 69 300 69 176 q 135 486 69 404 q 69 672 69 568 q 158 884 69 796 q 369 972 246 972 m 369 226 l 976 226 q 1029 249 1010 226 q 1049 300 1049 272 q 1029 350 1049 328 q 976 372 1010 372 l 369 372 q 306 336 324 372 q 306 263 288 300 q 369 226 324 226 m 369 600 l 976 600 q 1029 622 1010 600 q 1049 672 1049 644 q 1029 723 1049 700 q 976 746 1010 746 l 369 746 q 306 709 324 746 q 306 636 288 672 q 369 600 324 600 z "},"9":{"ha":1336,"x_min":56,"x_max":1264,"o":"m 57 618 l 57 665 q 149 885 57 797 q 375 972 242 972 l 946 972 q 1172 885 1079 972 q 1264 665 1264 797 l 1264 310 q 1172 88 1264 176 q 946 0 1079 0 l 151 0 q 216 162 151 96 q 374 228 281 228 l 946 228 q 992 234 974 228 q 1019 253 1010 240 q 1033 283 1029 267 q 1038 324 1038 300 q 910 313 1007 315 q 722 310 813 310 q 513 311 632 310 q 375 313 393 313 q 149 399 242 313 q 57 618 57 485 m 283 665 q 283 647 283 661 q 283 628 283 632 q 284 610 283 624 q 287 593 285 597 q 292 579 289 589 q 299 565 294 569 q 311 555 304 561 q 327 546 318 549 q 348 541 336 543 q 375 539 360 539 l 946 539 q 1038 618 1038 539 q 1038 632 1038 622 q 1037 661 1038 651 q 1034 687 1036 671 q 1026 711 1032 703 q 1011 728 1021 719 q 985 742 1001 738 q 946 746 968 746 l 375 746 q 283 665 283 746 z "},"\u0000":{"ha":0,"x_min":0,"x_max":0,"o":""},"\n":{"ha":0,"x_min":0,"x_max":0,"o":""},"\r":{"ha":0,"x_min":0,"x_max":0,"o":""}," ":{"ha":643,"x_min":0,"x_max":0,"o":""},"!":{"ha":431,"x_min":69,"x_max":361,"o":"m 112 239 q 133 260 112 239 q 215 282 154 282 q 318 239 275 282 q 361 135 361 196 q 318 33 361 75 q 215 -10 275 -10 q 112 33 154 -10 q 69 135 69 75 q 112 239 69 196 m 75 925 l 356 925 l 324 356 l 104 356 l 75 925 z "},"\"":{"ha":642,"x_min":50,"x_max":608,"o":"m 50 925 l 300 925 l 167 563 l 50 563 l 50 925 m 357 925 l 608 925 l 474 563 l 357 563 l 357 925 z "},"#":{"ha":922,"x_min":39,"x_max":883,"o":"m 492 428 l 526 543 l 421 543 l 388 428 l 492 428 m 739 738 l 882 738 l 854 644 q 802 571 840 599 q 717 543 764 543 l 681 543 l 644 428 l 788 428 l 760 336 q 708 263 746 290 q 622 235 669 235 l 586 235 l 551 121 q 531 78 544 97 q 499 47 517 60 q 459 26 481 33 q 413 19 438 19 l 365 19 l 432 235 l 326 235 l 292 121 q 240 47 278 75 q 154 19 203 19 l 108 19 l 174 235 l 40 235 l 69 326 q 121 400 83 372 q 207 428 158 428 l 232 428 l 268 543 l 136 543 l 165 636 q 195 690 175 667 q 244 725 215 713 q 304 738 272 738 l 328 738 l 354 824 q 406 897 368 869 q 492 925 443 925 l 539 925 l 482 738 l 586 738 l 611 822 q 641 876 621 853 q 690 913 661 900 q 750 925 718 925 l 797 925 l 739 738 z "},"$":{"ha":1165,"x_min":44,"x_max":1121,"o":"m 521 585 l 521 678 l 286 678 q 245 655 257 678 q 245 608 233 632 q 286 585 257 585 l 521 585 m 643 390 l 643 297 l 878 297 q 919 320 907 297 q 919 367 931 343 q 878 390 907 390 l 643 390 m 643 874 l 924 874 l 924 861 q 870 732 924 786 q 740 678 817 678 l 643 678 l 643 585 l 878 585 q 1049 514 978 585 q 1119 343 1119 443 q 1049 172 1119 243 q 878 101 978 101 l 643 101 l 643 19 l 521 19 l 521 101 l 240 101 l 240 114 q 265 205 240 163 q 331 272 289 247 q 424 297 374 297 l 521 297 l 521 390 l 286 390 q 115 461 186 390 q 44 631 44 532 q 115 802 44 731 q 286 874 186 874 l 521 874 l 521 956 l 643 956 l 643 874 z "},"%":{"ha":1339,"x_min":43,"x_max":1294,"o":"m 1006 117 q 1122 138 1089 117 q 1156 233 1156 160 q 1122 328 1156 307 q 1006 349 1088 349 q 888 328 922 349 q 854 233 854 307 q 863 171 854 194 q 892 135 871 147 q 939 120 914 124 q 1006 117 964 117 m 715 233 q 790 413 715 360 q 1006 467 865 467 q 1219 413 1144 467 q 1294 233 1294 360 q 1220 52 1294 106 q 1006 -1 1146 -1 q 790 52 865 -1 q 715 233 715 106 m 972 975 l 1085 975 l 364 -32 l 240 -32 l 972 975 m 183 724 q 217 628 183 650 q 335 607 250 607 q 451 628 418 607 q 485 724 485 650 q 451 817 485 797 q 335 838 417 838 q 217 817 251 838 q 183 724 183 796 m 44 724 q 119 903 44 850 q 335 956 194 956 q 548 903 474 956 q 622 724 622 850 q 548 542 622 596 q 335 489 474 489 q 119 542 193 489 q 44 724 44 596 z "},"&":{"ha":1107,"x_min":68,"x_max":1064,"o":"m 692 249 l 692 358 l 353 358 q 314 342 331 358 q 297 303 297 325 q 302 283 297 293 q 314 265 307 272 q 331 253 321 257 q 353 249 342 249 l 692 249 m 353 926 l 656 926 l 656 803 q 625 728 656 758 q 551 697 594 697 l 353 697 q 314 681 331 697 q 297 643 297 665 q 305 615 297 628 q 325 595 313 603 q 353 588 338 588 l 1064 588 l 1064 489 q 1025 397 1064 435 q 932 358 986 358 l 921 358 l 921 19 l 353 19 q 151 103 235 19 q 68 304 68 186 q 125 474 68 397 q 68 643 68 549 q 151 843 68 760 q 353 926 235 926 z "},"'":{"ha":335,"x_min":50,"x_max":301,"o":"m 50 925 l 300 925 l 167 563 l 50 563 l 50 925 z "},"(":{"ha":372,"x_min":69,"x_max":372,"o":"m 217 1093 l 371 1093 q 228 661 264 850 q 226 276 193 472 q 371 -156 260 81 l 219 -156 q 71 469 71 178 q 217 1093 71 760 z "},")":{"ha":372,"x_min":0,"x_max":301,"o":"m 1 1093 l 154 1093 q 301 469 300 760 q 151 -156 301 178 l 0 -156 q 144 279 111 88 q 144 658 178 471 q 1 1093 110 846 z "},"+":{"ha":818,"x_min":38,"x_max":779,"o":"m 778 556 l 778 404 l 483 404 l 483 108 l 331 108 l 331 404 l 39 404 l 39 556 l 331 556 l 331 847 l 483 847 l 483 556 l 778 556 z "},",":{"ha":363,"x_min":42,"x_max":331,"o":"m 42 251 l 331 251 l 197 -111 l 42 -111 l 42 251 z "},"-":{"ha":485,"x_min":35,"x_max":450,"o":"m 449 390 l 35 390 l 35 565 l 449 565 l 449 390 z "},".":{"ha":372,"x_min":40,"x_max":332,"o":"m 83 239 q 104 260 83 239 q 185 282 125 282 q 289 239 246 282 q 332 135 332 196 q 289 33 332 75 q 185 -10 246 -10 q 83 33 125 -10 q 40 135 40 75 q 83 239 40 196 z "},"/":{"ha":649,"x_min":-1,"x_max":638,"o":"m 472 975 l 638 975 l 174 -32 l -1 -32 l 472 975 z "},":":{"ha":417,"x_min":56,"x_max":361,"o":"m 72 508 q 64 522 72 508 q 56 572 56 536 q 72 637 56 608 q 116 681 89 665 q 176 703 143 696 q 240 703 208 710 q 299 681 272 696 q 343 637 326 665 q 360 572 360 608 q 343 508 360 536 q 299 465 326 479 q 240 443 272 450 q 176 443 208 436 q 116 465 143 450 q 72 508 89 479 m 360 135 q 343 70 360 99 q 299 27 326 42 q 240 6 272 13 q 176 6 208 -1 q 116 27 143 13 q 72 70 89 42 q 56 135 56 99 q 72 199 56 171 q 116 243 89 228 q 176 265 143 258 q 240 265 208 272 q 299 243 272 258 q 343 199 326 228 q 360 135 360 171 z "},";":{"ha":403,"x_min":58,"x_max":350,"o":"m 101 654 q 122 676 101 654 q 203 697 143 697 q 307 654 264 697 q 350 551 350 611 q 307 448 350 490 q 203 406 264 406 q 101 448 143 406 q 58 551 58 490 q 101 654 58 611 m 61 251 l 349 251 l 215 -111 l 61 -111 l 61 251 z "},"<":{"ha":806,"x_min":32,"x_max":749,"o":"m 749 257 l 749 92 l 82 404 q 33 475 33 425 q 82 549 33 525 l 749 860 l 749 694 l 276 475 l 749 257 z "},"=":{"ha":832,"x_min":46,"x_max":786,"o":"m 785 733 l 785 582 l 46 582 l 46 733 l 785 733 m 785 375 l 785 224 l 46 224 l 46 375 l 785 375 z "},">":{"ha":806,"x_min":57,"x_max":772,"o":"m 57 92 l 57 257 l 529 475 l 57 694 l 57 860 l 724 549 q 772 476 772 525 q 724 404 772 426 l 57 92 z "},"?":{"ha":949,"x_min":22,"x_max":903,"o":"m 303 6 l 303 201 l 497 201 l 497 6 l 303 6 m 22 874 l 660 874 q 831 802 760 874 q 901 632 901 731 q 869 511 901 567 q 781 423 836 456 q 660 390 725 390 l 497 390 l 497 297 l 303 297 l 303 585 l 660 585 q 701 608 689 585 q 701 655 713 632 q 660 678 689 678 l 206 678 q 113 703 156 678 q 47 770 71 728 q 22 861 22 813 l 22 874 z "},"@":{"ha":1221,"x_min":51,"x_max":1150,"o":"m 713 390 l 713 560 q 687 560 706 560 q 656 560 668 560 q 626 559 644 560 q 594 555 607 558 q 567 546 582 551 q 544 531 553 540 q 528 508 535 522 q 522 475 522 493 q 528 438 522 454 q 549 413 535 422 q 575 399 563 404 q 610 391 588 393 q 644 389 632 389 q 681 390 657 389 q 713 390 706 390 m 604 926 l 1150 926 l 1150 263 l 571 263 q 466 285 513 263 q 395 345 419 308 q 360 426 371 382 q 360 514 349 469 q 394 595 371 558 q 465 655 418 632 q 571 678 511 678 l 869 678 l 869 390 l 968 390 l 968 775 l 604 775 q 442 749 514 775 q 326 680 369 722 q 258 583 282 638 q 235 473 235 529 q 260 362 236 417 q 328 265 283 307 q 444 197 372 222 q 604 171 515 171 l 824 171 q 926 128 883 171 q 968 26 968 86 l 968 19 l 604 19 q 358 58 467 19 q 184 161 249 97 q 86 306 119 225 q 56 473 53 388 q 96 640 58 558 q 200 785 133 721 q 372 888 267 849 q 604 926 476 926 z "},"A":{"ha":1381,"x_min":-3,"x_max":1383,"o":"m 324 111 q 292 69 310 88 q 259 38 275 50 q 220 18 243 26 q 181 6 197 10 q 136 1 164 3 q 92 -1 108 -1 q 44 -1 76 -1 q -3 0 13 0 l 558 972 l 821 972 l 1382 0 q 1335 -1 1367 0 q 1287 -1 1303 -1 q 1243 1 1271 -1 q 1199 6 1215 3 q 1159 18 1182 10 q 1120 38 1136 26 q 1087 69 1104 50 q 1056 111 1069 88 l 689 746 l 324 111 z "},"B":{"ha":1311,"x_min":50,"x_max":1261,"o":"m 274 746 q 117 811 182 746 q 51 968 51 876 l 51 972 l 951 972 q 1087 941 1025 972 q 1187 857 1149 910 q 1242 742 1225 804 q 1246 611 1260 679 q 1186 486 1232 543 q 1246 360 1232 429 q 1242 230 1260 292 q 1187 115 1225 168 q 1087 31 1149 63 q 951 0 1025 0 l 274 0 q 117 65 182 0 q 51 222 51 131 l 51 228 l 951 228 q 1005 250 986 228 q 1024 300 1024 272 q 1005 350 1024 328 q 951 372 986 372 l 274 372 q 117 438 182 372 q 51 596 51 503 l 51 600 l 951 600 q 1005 622 986 600 q 1024 672 1024 644 q 1005 723 1024 700 q 951 746 986 746 l 274 746 z "},"C":{"ha":1138,"x_min":39,"x_max":1110,"o":"m 1110 972 l 1110 968 q 1044 811 1110 876 q 886 746 979 746 l 525 746 q 342 669 418 746 q 265 486 265 593 q 342 303 265 379 q 525 226 418 226 l 1110 226 l 1110 222 q 1044 65 1110 131 q 886 0 979 0 l 525 0 q 281 65 393 0 q 104 242 169 131 q 39 486 39 354 q 104 730 39 618 q 281 907 169 842 q 525 972 393 972 l 1110 972 z "},"D":{"ha":1171,"x_min":61,"x_max":1132,"o":"m 61 376 q 127 535 61 469 q 288 600 193 600 l 288 228 q 458 226 296 228 q 628 226 619 225 q 869 353 799 231 q 889 571 928 454 q 746 726 851 685 q 646 746 700 746 l 283 746 q 172 776 224 746 q 91 858 121 806 q 61 972 61 910 l 619 972 q 884 908 767 972 q 1067 733 1001 844 q 1132 486 1132 622 q 1067 242 1132 354 q 890 65 1001 131 q 646 0 778 0 l 61 0 l 61 376 z "},"E":{"ha":1176,"x_min":58,"x_max":1131,"o":"m 60 746 l 60 750 q 125 907 60 842 q 282 972 190 972 l 1131 972 l 1131 968 q 1065 811 1131 876 q 907 746 1000 746 l 60 746 m 326 372 q 298 361 310 372 q 286 333 286 350 l 286 228 l 1131 228 q 1065 66 1131 132 q 907 0 1000 0 l 60 0 l 60 376 q 125 535 60 469 q 282 600 190 600 l 1131 600 q 1065 438 1131 504 q 907 372 1000 372 l 326 372 z "},"F":{"ha":1151,"x_min":58,"x_max":1129,"o":"m 58 0 l 58 376 q 124 535 58 469 q 281 600 189 600 l 1129 600 q 1064 438 1129 504 q 906 372 999 372 l 325 372 q 297 361 308 372 q 286 333 286 350 l 286 0 l 58 0 m 58 746 q 76 835 58 793 q 123 907 93 876 q 194 955 153 938 q 281 972 236 972 l 1129 972 q 1064 811 1129 876 q 906 746 999 746 l 58 746 z "},"G":{"ha":1179,"x_min":39,"x_max":1110,"o":"m 553 600 l 1110 600 l 1110 0 l 525 0 q 281 65 393 0 q 104 242 169 131 q 39 486 39 354 q 184 833 39 693 q 550 972 329 972 l 1110 972 l 1110 968 q 1044 811 1110 876 q 886 746 979 746 l 525 746 q 311 633 383 746 q 275 418 247 533 q 424 249 306 296 q 550 226 481 226 l 550 228 l 883 228 l 883 372 l 776 372 q 618 438 683 372 q 553 596 553 503 l 553 600 z "},"H":{"ha":1226,"x_min":76,"x_max":1149,"o":"m 306 750 l 306 600 l 922 600 l 922 972 q 1083 907 1017 972 q 1149 750 1149 842 l 1149 0 q 988 65 1053 0 q 922 222 922 131 l 922 372 l 306 372 l 306 0 q 144 65 210 0 q 78 222 78 129 l 78 972 q 193 942 140 972 q 276 861 246 913 q 306 750 306 810 z "},"I":{"ha":383,"x_min":78,"x_max":306,"o":"m 306 750 l 306 0 l 300 0 q 143 65 208 0 q 78 222 78 131 l 78 972 l 82 972 q 240 907 174 972 q 306 750 306 842 z "},"J":{"ha":869,"x_min":3,"x_max":803,"o":"m 3 4 q 68 162 3 96 q 225 228 133 228 l 485 228 q 549 254 522 228 q 576 318 576 281 l 576 972 l 581 972 q 738 907 672 972 q 803 750 803 842 l 803 318 q 710 93 803 186 q 485 0 617 0 l 3 0 l 3 4 z "},"K":{"ha":1160,"x_min":76,"x_max":1160,"o":"m 306 372 l 306 0 l 300 0 q 143 65 208 0 q 78 222 78 131 l 78 972 l 82 972 q 240 907 174 972 q 306 750 306 842 l 306 600 l 465 600 l 839 972 l 1160 972 l 665 478 l 1143 0 l 821 0 l 449 372 l 306 372 z "},"L":{"ha":1056,"x_min":78,"x_max":1053,"o":"m 1051 228 l 921 0 l 300 0 q 143 65 208 0 q 78 222 78 131 l 78 972 l 82 972 q 240 907 174 972 q 306 750 306 842 l 306 267 q 317 239 306 250 q 344 228 328 228 l 1051 228 z "},"M":{"ha":1939,"x_min":-4,"x_max":1942,"o":"m 324 111 q 242 29 293 58 q 131 0 192 0 l -3 0 l 558 972 l 821 972 l 969 715 l 1117 972 l 1379 972 l 1940 0 l 1807 0 q 1695 29 1746 0 q 1614 111 1644 58 l 1249 746 l 882 111 q 801 29 851 58 q 689 0 751 0 l 556 0 l 838 489 l 690 744 l 324 111 z "},"N":{"ha":1194,"x_min":78,"x_max":1117,"o":"m 1117 972 l 1117 222 q 1051 65 1117 131 q 893 0 986 0 l 889 0 l 306 654 l 306 222 q 240 65 306 131 q 82 0 174 0 l 78 0 l 78 750 q 143 907 78 842 q 300 972 208 972 l 306 972 l 889 322 l 889 750 q 954 907 889 842 q 1113 972 1019 972 l 1117 972 z "},"O":{"ha":1335,"x_min":63,"x_max":1271,"o":"m 1271 665 l 1271 308 q 1178 88 1271 175 q 953 0 1086 0 l 382 0 q 156 88 249 0 q 64 308 64 175 l 64 665 q 156 885 64 797 q 382 972 249 972 l 953 972 q 1178 885 1086 972 q 1271 665 1271 797 m 1043 308 l 1043 664 q 953 746 1043 746 l 382 746 q 290 664 290 746 l 290 308 q 382 228 290 228 l 953 228 q 1043 308 1043 228 z "},"P":{"ha":1313,"x_min":65,"x_max":1283,"o":"m 288 746 q 131 811 196 746 q 65 972 65 876 l 956 972 q 1119 928 1044 972 q 1239 809 1194 885 q 1283 644 1283 733 q 1187 412 1283 508 q 956 315 1090 315 l 293 315 l 293 222 q 227 65 293 129 q 65 0 161 0 l 65 543 l 956 543 q 1029 574 1003 543 q 1056 644 1056 606 q 1029 714 1056 682 q 956 746 1003 746 l 288 746 z "},"Q":{"ha":1335,"x_min":64,"x_max":1271,"o":"m 1271 308 q 1178 88 1271 175 q 1092 29 1139 50 l 1233 -112 l 913 -112 l 800 0 l 382 0 q 157 88 250 0 q 64 308 64 175 l 64 665 q 157 885 64 796 q 382 972 250 972 l 953 972 q 1178 885 1085 972 q 1271 665 1271 797 l 1271 308 m 572 228 l 460 340 l 782 340 l 894 228 l 953 228 q 1044 308 1044 228 l 1044 664 q 953 746 1044 746 l 382 746 q 292 664 292 746 l 292 308 q 382 228 292 228 l 572 228 z "},"R":{"ha":1243,"x_min":-4,"x_max":1214,"o":"m -4 972 l 886 972 q 1117 876 1021 972 q 1214 644 1214 779 q 1117 412 1214 508 q 886 315 1021 315 l 635 315 l 817 0 l 556 0 l 242 543 l 886 543 q 960 574 933 543 q 986 644 986 606 q 959 714 986 682 q 886 746 932 746 l 253 746 q 142 775 192 746 q 61 857 92 804 l -4 972 z "},"S":{"ha":1293,"x_min":44,"x_max":1247,"o":"m 863 372 l 346 372 q 134 460 222 372 q 46 672 46 549 q 134 884 46 796 q 346 972 222 972 l 1246 972 q 1181 811 1246 876 q 1024 746 1117 746 l 346 746 q 292 723 311 746 q 274 672 274 700 q 292 622 274 644 q 346 600 311 600 l 946 600 q 1063 576 1007 600 q 1158 511 1118 551 q 1222 416 1199 471 q 1246 300 1246 361 q 1158 88 1246 176 q 946 0 1069 0 l 46 0 q 76 115 46 63 q 157 198 106 168 q 268 228 208 228 l 946 228 q 999 250 981 228 q 1018 300 1018 272 q 999 350 1018 328 q 946 372 981 372 l 863 372 z "},"T":{"ha":1117,"x_min":7,"x_max":1114,"o":"m 1113 972 q 1095 883 1113 925 q 1048 810 1078 840 q 977 763 1018 781 q 890 746 936 746 l 674 746 l 674 0 q 513 65 579 0 q 447 222 447 131 l 447 746 l 8 746 q 26 835 8 793 q 73 907 43 876 q 144 955 103 938 q 231 972 186 972 l 1113 972 z "},"U":{"ha":1354,"x_min":74,"x_max":1281,"o":"m 1281 308 q 1188 88 1281 175 q 963 0 1096 0 l 392 0 q 166 88 258 0 q 74 308 74 175 l 74 972 l 78 972 q 235 907 169 972 q 301 750 301 842 l 301 308 q 392 228 301 228 l 963 228 q 1054 308 1054 228 l 1054 750 q 1119 907 1054 842 q 1276 972 1185 972 l 1281 972 l 1281 308 z "},"V":{"ha":1378,"x_min":-4,"x_max":1382,"o":"m -4 972 l 129 972 q 241 943 190 972 q 322 861 292 914 l 689 228 l 1054 861 q 1135 943 1085 914 q 1247 972 1186 972 l 1381 972 l 819 0 l 557 0 l -4 972 z "},"W":{"ha":1936,"x_min":-6,"x_max":1940,"o":"m 1806 972 l 1939 972 l 1378 0 l 1115 0 l 967 257 l 819 0 l 557 0 l -4 972 l 129 972 q 241 943 190 972 q 322 861 292 914 l 688 228 l 1054 861 q 1135 943 1085 914 q 1247 972 1186 972 l 1381 972 l 1099 483 l 1247 228 l 1613 861 q 1694 943 1643 914 q 1806 972 1744 972 z "},"X":{"ha":849,"x_min":13,"x_max":836,"o":"m 13 0 l 293 486 l 13 972 l 146 972 q 223 959 186 972 q 289 921 260 946 q 339 861 318 896 l 424 714 l 510 861 q 591 943 540 914 q 703 972 642 972 l 836 972 l 556 486 l 836 0 l 703 0 q 591 29 642 0 q 510 111 540 58 l 425 260 l 339 111 q 258 29 308 58 q 146 0 207 0 l 13 0 z "},"Y":{"ha":1279,"x_min":36,"x_max":1243,"o":"m 1243 681 q 1150 460 1243 549 q 925 372 1057 372 l 753 372 l 753 0 l 526 0 l 526 372 l 354 372 q 128 460 221 372 q 36 681 36 549 l 36 972 l 40 972 q 198 907 132 972 q 264 750 264 842 l 264 681 q 354 600 264 600 l 925 600 q 1015 681 1015 600 l 1015 750 q 1081 907 1015 842 q 1239 972 1147 972 l 1243 972 l 1243 681 z "},"Z":{"ha":1111,"x_min":38,"x_max":1081,"o":"m 856 226 q 1014 161 949 226 q 1079 4 1079 96 l 1079 0 l 38 0 l 38 228 l 701 744 l 260 744 q 103 810 168 744 q 38 968 38 876 l 38 972 l 1061 972 l 1057 749 l 404 225 l 856 226 z "},"_":{"ha":1086,"x_min":83,"x_max":1003,"o":"m 1003 -160 l 83 -160 l 83 -37 l 1003 -37 l 1003 -160 z "},"a":{"ha":1381,"x_min":-3,"x_max":1383,"o":"m 324 111 q 292 69 310 88 q 259 38 275 50 q 220 18 243 26 q 181 6 197 10 q 136 1 164 3 q 92 -1 108 -1 q 44 -1 76 -1 q -3 0 13 0 l 558 972 l 821 972 l 1382 0 q 1335 -1 1367 0 q 1287 -1 1303 -1 q 1243 1 1271 -1 q 1199 6 1215 3 q 1159 18 1182 10 q 1120 38 1136 26 q 1087 69 1104 50 q 1056 111 1069 88 l 689 746 l 324 111 z "},"b":{"ha":1311,"x_min":50,"x_max":1261,"o":"m 274 746 q 117 811 182 746 q 51 968 51 876 l 51 972 l 951 972 q 1087 941 1025 972 q 1187 857 1149 910 q 1242 742 1225 804 q 1246 611 1260 679 q 1186 486 1232 543 q 1246 360 1232 429 q 1242 230 1260 292 q 1187 115 1225 168 q 1087 31 1149 63 q 951 0 1025 0 l 274 0 q 117 65 182 0 q 51 222 51 131 l 51 228 l 951 228 q 1005 250 986 228 q 1024 300 1024 272 q 1005 350 1024 328 q 951 372 986 372 l 274 372 q 117 438 182 372 q 51 596 51 503 l 51 600 l 951 600 q 1005 622 986 600 q 1024 672 1024 644 q 1005 723 1024 700 q 951 746 986 746 l 274 746 z "},"c":{"ha":1138,"x_min":39,"x_max":1110,"o":"m 1110 972 l 1110 968 q 1044 811 1110 876 q 886 746 979 746 l 525 746 q 342 669 418 746 q 265 486 265 593 q 342 303 265 379 q 525 226 418 226 l 1110 226 l 1110 222 q 1044 65 1110 131 q 886 0 979 0 l 525 0 q 281 65 393 0 q 104 242 169 131 q 39 486 39 354 q 104 730 39 618 q 281 907 169 842 q 525 972 393 972 l 1110 972 z "},"d":{"ha":1171,"x_min":61,"x_max":1132,"o":"m 61 376 q 127 535 61 469 q 288 600 193 600 l 288 228 q 458 226 296 228 q 628 226 619 225 q 869 353 799 231 q 889 571 928 454 q 746 726 851 685 q 646 746 700 746 l 283 746 q 172 776 224 746 q 91 858 121 806 q 61 972 61 910 l 619 972 q 884 908 767 972 q 1067 733 1001 844 q 1132 486 1132 622 q 1067 242 1132 354 q 890 65 1001 131 q 646 0 778 0 l 61 0 l 61 376 z "},"e":{"ha":1176,"x_min":58,"x_max":1131,"o":"m 60 746 l 60 750 q 125 907 60 842 q 282 972 190 972 l 1131 972 l 1131 968 q 1065 811 1131 876 q 907 746 1000 746 l 60 746 m 326 372 q 298 361 310 372 q 286 333 286 350 l 286 228 l 1131 228 q 1065 66 1131 132 q 907 0 1000 0 l 60 0 l 60 376 q 125 535 60 469 q 282 600 190 600 l 1131 600 q 1065 438 1131 504 q 907 372 1000 372 l 326 372 z "},"f":{"ha":1151,"x_min":58,"x_max":1129,"o":"m 58 0 l 58 376 q 124 535 58 469 q 281 600 189 600 l 1129 600 q 1064 438 1129 504 q 906 372 999 372 l 325 372 q 297 361 308 372 q 286 333 286 350 l 286 0 l 58 0 m 58 746 q 76 835 58 793 q 123 907 93 876 q 194 955 153 938 q 281 972 236 972 l 1129 972 q 1064 811 1129 876 q 906 746 999 746 l 58 746 z "},"g":{"ha":1179,"x_min":39,"x_max":1110,"o":"m 553 600 l 1110 600 l 1110 0 l 525 0 q 281 65 393 0 q 104 242 169 131 q 39 486 39 354 q 184 833 39 693 q 550 972 329 972 l 1110 972 l 1110 968 q 1044 811 1110 876 q 886 746 979 746 l 525 746 q 311 633 383 746 q 275 418 247 533 q 424 249 306 296 q 550 226 481 226 l 550 228 l 883 228 l 883 372 l 776 372 q 618 438 683 372 q 553 596 553 503 l 553 600 z "},"h":{"ha":1226,"x_min":76,"x_max":1149,"o":"m 306 750 l 306 600 l 922 600 l 922 972 q 1083 907 1017 972 q 1149 750 1149 842 l 1149 0 q 988 65 1053 0 q 922 222 922 131 l 922 372 l 306 372 l 306 0 q 144 65 210 0 q 78 222 78 129 l 78 972 q 193 942 140 972 q 276 861 246 913 q 306 750 306 810 z "},"i":{"ha":383,"x_min":78,"x_max":306,"o":"m 306 750 l 306 0 l 300 0 q 143 65 208 0 q 78 222 78 131 l 78 972 l 82 972 q 240 907 174 972 q 306 750 306 842 z "},"j":{"ha":869,"x_min":3,"x_max":803,"o":"m 3 4 q 68 162 3 96 q 225 228 133 228 l 485 228 q 549 254 522 228 q 576 318 576 281 l 576 972 l 581 972 q 738 907 672 972 q 803 750 803 842 l 803 318 q 710 93 803 186 q 485 0 617 0 l 3 0 l 3 4 z "},"k":{"ha":1160,"x_min":76,"x_max":1160,"o":"m 306 372 l 306 0 l 300 0 q 143 65 208 0 q 78 222 78 131 l 78 972 l 82 972 q 240 907 174 972 q 306 750 306 842 l 306 600 l 465 600 l 839 972 l 1160 972 l 665 478 l 1143 0 l 821 0 l 449 372 l 306 372 z "},"l":{"ha":1056,"x_min":78,"x_max":1053,"o":"m 1051 228 l 921 0 l 300 0 q 143 65 208 0 q 78 222 78 131 l 78 972 l 82 972 q 240 907 174 972 q 306 750 306 842 l 306 267 q 317 239 306 250 q 344 228 328 228 l 1051 228 z "},"m":{"ha":1939,"x_min":-4,"x_max":1942,"o":"m 324 111 q 242 29 293 58 q 131 0 192 0 l -3 0 l 558 972 l 821 972 l 969 715 l 1117 972 l 1379 972 l 1940 0 l 1807 0 q 1695 29 1746 0 q 1614 111 1644 58 l 1249 746 l 882 111 q 801 29 851 58 q 689 0 751 0 l 556 0 l 838 489 l 690 744 l 324 111 z "},"n":{"ha":1194,"x_min":78,"x_max":1117,"o":"m 1117 972 l 1117 222 q 1051 65 1117 131 q 893 0 986 0 l 889 0 l 306 654 l 306 222 q 240 65 306 131 q 82 0 174 0 l 78 0 l 78 750 q 143 907 78 842 q 300 972 208 972 l 306 972 l 889 322 l 889 750 q 954 907 889 842 q 1113 972 1019 972 l 1117 972 z "},"o":{"ha":1335,"x_min":63,"x_max":1271,"o":"m 1271 665 l 1271 308 q 1178 88 1271 175 q 953 0 1086 0 l 382 0 q 156 88 249 0 q 64 308 64 175 l 64 665 q 156 885 64 797 q 382 972 249 972 l 953 972 q 1178 885 1086 972 q 1271 665 1271 797 m 1043 308 l 1043 664 q 953 746 1043 746 l 382 746 q 290 664 290 746 l 290 308 q 382 228 290 228 l 953 228 q 1043 308 1043 228 z "},"p":{"ha":1313,"x_min":65,"x_max":1283,"o":"m 288 746 q 131 811 196 746 q 65 972 65 876 l 956 972 q 1119 928 1044 972 q 1239 809 1194 885 q 1283 644 1283 733 q 1187 412 1283 508 q 956 315 1090 315 l 293 315 l 293 222 q 227 65 293 129 q 65 0 161 0 l 65 543 l 956 543 q 1029 574 1003 543 q 1056 644 1056 606 q 1029 714 1056 682 q 956 746 1003 746 l 288 746 z "},"q":{"ha":1335,"x_min":64,"x_max":1271,"o":"m 1271 308 q 1178 88 1271 175 q 1092 29 1139 50 l 1233 -112 l 913 -112 l 800 0 l 382 0 q 157 88 250 0 q 64 308 64 175 l 64 665 q 157 885 64 796 q 382 972 250 972 l 953 972 q 1178 885 1085 972 q 1271 665 1271 797 l 1271 308 m 572 228 l 460 340 l 782 340 l 894 228 l 953 228 q 1044 308 1044 228 l 1044 664 q 953 746 1044 746 l 382 746 q 292 664 292 746 l 292 308 q 382 228 292 228 l 572 228 z "},"r":{"ha":1243,"x_min":-4,"x_max":1214,"o":"m -4 972 l 886 972 q 1117 876 1021 972 q 1214 644 1214 779 q 1117 412 1214 508 q 886 315 1021 315 l 635 315 l 817 0 l 556 0 l 242 543 l 886 543 q 960 574 933 543 q 986 644 986 606 q 959 714 986 682 q 886 746 932 746 l 253 746 q 142 775 192 746 q 61 857 92 804 l -4 972 z "},"s":{"ha":1293,"x_min":44,"x_max":1247,"o":"m 863 372 l 346 372 q 134 460 222 372 q 46 672 46 549 q 134 884 46 796 q 346 972 222 972 l 1246 972 q 1181 811 1246 876 q 1024 746 1117 746 l 346 746 q 292 723 311 746 q 274 672 274 700 q 292 622 274 644 q 346 600 311 600 l 946 600 q 1063 576 1007 600 q 1158 511 1118 551 q 1222 416 1199 471 q 1246 300 1246 361 q 1158 88 1246 176 q 946 0 1069 0 l 46 0 q 76 115 46 63 q 157 198 106 168 q 268 228 208 228 l 946 228 q 999 250 981 228 q 1018 300 1018 272 q 999 350 1018 328 q 946 372 981 372 l 863 372 z "},"t":{"ha":1117,"x_min":7,"x_max":1114,"o":"m 1113 972 q 1095 883 1113 925 q 1048 810 1078 840 q 977 763 1018 781 q 890 746 936 746 l 674 746 l 674 0 q 513 65 579 0 q 447 222 447 131 l 447 746 l 8 746 q 26 835 8 793 q 73 907 43 876 q 144 955 103 938 q 231 972 186 972 l 1113 972 z "},"u":{"ha":1354,"x_min":74,"x_max":1281,"o":"m 1281 308 q 1188 88 1281 175 q 963 0 1096 0 l 392 0 q 166 88 258 0 q 74 308 74 175 l 74 972 l 78 972 q 235 907 169 972 q 301 750 301 842 l 301 308 q 392 228 301 228 l 963 228 q 1054 308 1054 228 l 1054 750 q 1119 907 1054 842 q 1276 972 1185 972 l 1281 972 l 1281 308 z "},"v":{"ha":1378,"x_min":-4,"x_max":1382,"o":"m -4 972 l 129 972 q 241 943 190 972 q 322 861 292 914 l 689 228 l 1054 861 q 1135 943 1085 914 q 1247 972 1186 972 l 1381 972 l 819 0 l 557 0 l -4 972 z "},"w":{"ha":1936,"x_min":-6,"x_max":1940,"o":"m 1806 972 l 1939 972 l 1378 0 l 1115 0 l 967 257 l 819 0 l 557 0 l -4 972 l 129 972 q 241 943 190 972 q 322 861 292 914 l 688 228 l 1054 861 q 1135 943 1085 914 q 1247 972 1186 972 l 1381 972 l 1099 483 l 1247 228 l 1613 861 q 1694 943 1643 914 q 1806 972 1744 972 z "},"x":{"ha":849,"x_min":13,"x_max":836,"o":"m 13 0 l 293 486 l 13 972 l 146 972 q 223 959 186 972 q 289 921 260 946 q 339 861 318 896 l 424 714 l 510 861 q 591 943 540 914 q 703 972 642 972 l 836 972 l 556 486 l 836 0 l 703 0 q 591 29 642 0 q 510 111 540 58 l 425 260 l 339 111 q 258 29 308 58 q 146 0 207 0 l 13 0 z "},"y":{"ha":1279,"x_min":36,"x_max":1243,"o":"m 1243 681 q 1150 460 1243 549 q 925 372 1057 372 l 753 372 l 753 0 l 526 0 l 526 372 l 354 372 q 128 460 221 372 q 36 681 36 549 l 36 972 l 40 972 q 198 907 132 972 q 264 750 264 842 l 264 681 q 354 600 264 600 l 925 600 q 1015 681 1015 600 l 1015 750 q 1081 907 1015 842 q 1239 972 1147 972 l 1243 972 l 1243 681 z "},"z":{"ha":1111,"x_min":38,"x_max":1081,"o":"m 856 226 q 1014 161 949 226 q 1079 4 1079 96 l 1079 0 l 38 0 l 38 228 l 701 744 l 260 744 q 103 810 168 744 q 38 968 38 876 l 38 972 l 1061 972 l 1057 749 l 404 225 l 856 226 z "},"{":{"ha":438,"x_min":57,"x_max":386,"o":"m 386 1093 l 386 929 q 303 899 303 929 l 303 597 q 226 464 303 494 q 303 332 303 438 l 303 36 q 386 7 303 7 l 386 -156 q 280 -151 318 -156 q 208 -135 242 -147 q 165 -101 175 -124 q 144 -40 156 -78 q 138 55 133 -1 q 138 189 142 111 q 139 344 139 286 q 57 393 139 392 l 57 536 q 139 583 139 538 q 138 744 139 644 q 138 878 142 822 q 144 974 133 935 q 165 1036 156 1013 q 208 1072 175 1060 q 280 1089 242 1085 q 386 1093 318 1093 z "},"}":{"ha":439,"x_min":51,"x_max":382,"o":"m 297 925 l 297 583 l 299 583 q 382 536 299 538 l 382 393 q 299 344 299 392 q 299 189 299 286 q 300 55 296 111 q 293 -40 304 -1 q 272 -101 282 -78 q 229 -135 263 -124 q 158 -151 196 -147 q 51 -156 119 -156 l 51 7 q 135 36 135 7 l 136 332 q 213 464 136 438 q 133 597 133 494 l 133 899 q 51 929 133 929 l 51 1093 q 79 1093 61 1093 q 126 1093 103 1093 q 172 1090 150 1093 q 212 1081 193 1086 q 247 1063 231 1075 q 274 1033 263 1050 q 291 988 285 1015 q 297 925 297 960 z "}," ":{"ha":643,"x_min":0,"x_max":0,"o":""},"­":{"ha":0,"x_min":0,"x_max":0,"o":""}}}
